<svg width="22" height="20" viewBox="0 0 22 20" fill="none" xmlns="http://www.w3.org/2000/svg">
<path d="M7.44245 4.48165H9.54167V14.0915C9.54167 14.2165 9.64394 14.3187 9.76892 14.3187H11.4733C11.5983 14.3187 11.7006 14.2165 11.7006 14.0915V4.48165H13.8055C13.9958 4.48165 14.1009 4.26292 13.9844 4.1152L10.8029 0.0871928C10.7817 0.0600313 10.7545 0.0380648 10.7235 0.0229579C10.6925 0.00785099 10.6584 0 10.624 0C10.5895 0 10.5554 0.00785099 10.5244 0.0229579C10.4934 0.0380648 10.4662 0.0600313 10.445 0.0871928L7.26349 4.11236C7.14702 4.26292 7.25213 4.48165 7.44245 4.48165ZM21.0207 13.2393H19.3163C19.1913 13.2393 19.089 13.3416 19.089 13.4666V17.8411H2.15888V13.4666C2.15888 13.3416 2.05662 13.2393 1.93163 13.2393H0.22725C0.102263 13.2393 0 13.3416 0 13.4666V19.091C0 19.5938 0.40621 20 0.909001 20H20.3389C20.8417 20 21.2479 19.5938 21.2479 19.091V13.4666C21.2479 13.3416 21.1456 13.2393 21.0207 13.2393Z" fill="#333333"/>
</svg>
